# xmcd CD database file generated by OrangeCD 6.3
#
# Track frame offsets:
#	150
#	19190
#	33285
#	50040
#	62710
#	78575
#	100125
#	118665
#	142390
#	165110
#	183880
#	201135
#	217270
#	248025
#	265565
#	284180
#
# Disc length: 4189 seconds
#
# Revision: 0
# Processed by: cddbd v1.5.2PL0 Copyright (c) Steve Scherf et al.
# Submitted via: OrangeCD 6.3
#
DISCID=ee105b10
DTITLE=Eric Clapton - Club Full of Blues
DYEAR=1996
DGENRE=Blues
TTITLE0=Motherless Child
TTITLE1=Malted Milk
TTITLE2=How Long
TTITLE3=Kidman Blues
TTITLE4=County Jail
TTITLE5=The Forty Four
TTITLE6=Blues All Day Long
TTITLE7=Goin' Away
TTITLE8=Standing Around Crying
TTITLE9=Hoochie Coochie Man
TTITLE10=It Hurts Me Too
TTITLE11=Blues Before Sunrise
TTITLE12=Third Degree
TTITLE13=Reconsider Baby
TTITLE14=Sinners Prayer
TTITLE15=Before You Accuse Me
EXTD=
EXTT0=
EXTT1=
EXTT2=
EXTT3=
EXTT4=
EXTT5=
EXTT6=
EXTT7=
EXTT8=
EXTT9=
EXTT10=
EXTT11=
EXTT12=
EXTT13=
EXTT14=
EXTT15=
PLAYORDER=
